# xmcd CD database file
#
# Track frame offsets:
#	150
#	16808
#	31877
#	44200
#	52925
#	66670
#	78820
#	87155
#	101637
#	114579
#	126250
#	139565
#	151047
#	164770
#	181420
#	196009
#	207162
#	220557
#	231612
#
# Disc length: 3271 seconds
#
# Revision: 0
# Processed by: cddbd v1.5.2PL0 Copyright (c) Steve Scherf et al.
# Submitted via: CDex 1.51
#
DISCID=040cc513
DTITLE=Nat King Cole - Unique
DYEAR=2007
DGENRE=Jazz
TTITLE0=Unforgettable
TTITLE1=Ain't Misbehavin'
TTITLE2=Nature Boy
TTITLE3=It's Only A Paper Moon
TTITLE4=Leilani
TTITLE5=Mona Lisa
TTITLE6=I'm In The Mood for Love
TTITLE7=Sweet Lorraine
TTITLE8=Let's Fall In Love
TTITLE9=Makin' Whoopee
TTITLE10=There Goes My Heart
TTITLE11=This Can't Be Love
TTITLE12=Tunnel Of Love
TTITLE13=Too Young
TTITLE14=Time Out For Tears
TTITLE15=Too Marvellous For Words
TTITLE16=Gee Baby Ain't I Good To You
TTITLE17=Embraceable You
TTITLE18=What Is This thing Called Love
EXTD=YEAR: 2007
EXTT0=
EXTT1=
EXTT2=
EXTT3=
EXTT4=
EXTT5=
EXTT6=
EXTT7=
EXTT8=
EXTT9=
EXTT10=
EXTT11=
EXTT12=
EXTT13=
EXTT14=
EXTT15=
EXTT16=
EXTT17=
EXTT18=
PLAYORDER=
